# xmcd
#
# Track frame offsets: 
#        150
#        22052
#        42972
#        60715
#        79750
#        100720
#        119315
#        138217
#        156220
#        175362
#
# Disc length: 2583 seconds
#
# Revision: 3
# Processed by: cddbd v1.5.2PL0 Copyright (c) Steve Scherf et al.
# Submitted via: ExactAudioCopy v1.0b1
#
DISCID=7e0a150a
DTITLE=McAuley Schenker Group - Perfect Timing
DYEAR=1987
DGENRE=Hard Rock
TTITLE0=Gimme Your Love
TTITLE1=Here Today--Gone Tomorrow
TTITLE2=Don't Stop Me Now
TTITLE3=No Time For Losers
TTITLE4=Follow The Night
TTITLE5=Get Out
TTITLE6=Love Is Not A Game
TTITLE7=Time
TTITLE8=I Don't Wanna Lose
TTITLE9=Rock 'Til You're Crazy
EXTD=
EXTT0=
EXTT1=
EXTT2=
EXTT3=
EXTT4=
EXTT5=
EXTT6=
EXTT7=
EXTT8=
EXTT9=
PLAYORDER=
